/* XPM */
static char *result[] = {
/* columns rows colors chars-per-pixel */
"64 64 80 1 ",
"  c #110C0D",
". c #140F10",
"X c #161112",
"o c #1A1516",
"O c #1C1718",
"+ c #1E191A",
"@ c #221E1E",
"# c #231F20",
"$ c #262122",
"% c #292626",
"& c #2B2728",
"* c #2D292A",
"= c #302D2E",
"- c #322F30",
"; c #363334",
": c #383637",
"> c #393738",
", c #3C3A3B",
"< c #403E3F",
"1 c #403F40",
"2 c #474647",
"3 c #474648",
"4 c #494748",
"5 c #4C4B4C",
"6 c #4F4F50",
"7 c #504F51",
"8 c #525253",
"9 c #5F5E5F",
"0 c #605E5F",
"q c #5E5F61",
"w c #605F60",
"e c #5F6062",
"r c #616264",
"t c #666769",
"y c #67686A",
"u c #696B6D",
"i c #727476",
"p c #757779",
"a c #76797A",
"s c #7A7C7D",
"d c #7F7F80",
"f c #7F8284",
"g c #828687",
"h c #838789",
"j c #85898B",
"k c #898D8F",
"l c #8A8E90",
"z c #8F9397",
"x c #919597",
"c c #919698",
"v c #959B9D",
"b c #9A9C9D",
"n c #999FA1",
"m c #9AA0A2",
"M c #9FA6A8",
"N c #A4A6A7",
"B c #A3A7A8",
"V c #A3A9AB",
"C c #A6ADB1",
"Z c #AFB6BB",
"A c #B0B7BC",
"S c #B4BBC0",
"D c #BFC2C3",
"F c #BFC7CC",
"G c #C1C4C5",
"H c #C4C7C8",
"J c #C6CACB",
"K c #C9CCCD",
"L c #D6DADB",
"P c #DADEDF",
"I c #DBDFE0",
"U c #DEE3E4",
"Y c #E7ECED",
"T c #E8EDEE",
"R c #EAEFF0",
"E c #ECF1F2",
"W c #F1F7F8",
"Q c #F5FAFB",
"! c #F9FEFF",
"~ c None",
/* pixels */
"~~~~~~~~~~~~~~~~~~~~~~~~~~$@$#$@$+$@$$~~~~~~~~~~~~~~~~~~~~~~~~~~",
"~~~~~~~~~~~~~~~~~~~~~~~~~#$+oOooOOOoO$$~~~~~~~~~~~~~~~~~~~~~~~~~",
"~~~~~~~~~~~~~~~~~~~~~~~~~$@>85555558>+$~~~~~~~~~~~~~~~~~~~~~~~~~",
"~~~~~~~~~~~~~~~~~~~~~~~~~$otVmmnmmmVyo$~~~~~~~~~~~~~~~~~~~~~~~~~",
"~~~~~~~~~~~~~~~~~~~~~~~~~$Ormccccccnro$~~~~~~~~~~~~~~~~~~~~~~~~~",
"~~~~~~~~~~~~~~$~~~~~~~~~~#ormccccccmr+$~~~~~~~~~~$~~~~~~~~~~~~~~",
"~~~~~~~~~~~~@$$$@~~~~~~~#$oemccccccneo$@~~~~~~~#$$$#~~~~~~~~~~~~",
"~~~~~~~~~~~#%++@%@~~~$@$#O umxcccccmuXo#$@$~~~#$@+@$#~~~~~~~~~~~",
"~~~~~~~~~~##O;a=O$$@$$+o$,rxcccccccccr,$o+$###$O*a:o$$~~~~~~~~~~",
"~~~~~~~~~#%o-lNh&O$$+o:tjvmccccccccccnvjt:OO$$+&hMk-O$#~~~~~~~~~",
"~~~~~~~~#%o-lnxnh&Xo>icmvccccccccccccccvnvi,OX&hmcnl-O$#~~~~~~~~",
"~~~~~~~$%o-knxcxnh5tvmccccccccccccccccccccnvy4gnccznl-O$#~~~~~~~",
"~~~~~~@$O*lnzccczvmncccccccccxccccccccccccccnmvxcccznl;o$$~~~~~~",
"~~~~~~$@:knxccccccxcccccccccccccccccccccccccccccccccznk;+$~~~~~~",
"~~~~~$$+aMzccccccccccccccccccccccccccxccccccccccccccccMs+$#~~~~~",
"~~~~~~$@*hnzccccccccccccccxvnmmnnnmnvxcccccccccccccccmh*@$~~~~~~",
"~~~~~~#$o*hnzccccccccccccnnliq7446wikmmccccccccccccznj&O%@~~~~~~",
"~~~~~~~#$+*gvxcccccccccvbp4&OoX.XXo+%4avnccccccccccvh*O$@~~~~~~~",
"~~~~~~~~#$X4mcccccxcccmf<+o..+&;;&+ XX+<fmcccccxcccm5X$@~~~~~~~~",
"~~~~~~~~@$otnxccccccvmr@o @8xDLUULGc8+Xo@rncccccccznto$@~~~~~~~~",
"~~~~~~~~$+>vcccccccvv8oo.0GW!WETEEW!QGqXoo8vvcccccccv,+$~~~~~~~~",
"~~~~~~~#$Oimcccccccm8oX$N!QYYTTYYYYTYQQN$XX8ncccccccmi+$@~~~~~~~",
"~~~~~~~#+>vcccccccmroo*K!YYYYYYTTYYYYYY!J-Xormcczccccv>+@~~~~~~~",
"~~~~~~~$Ormccccccnf+o$J!YYYYE!QEEQ!EYYYY!K$o@fnccccccmro$~~~~~~~",
"~~~~~~@#$jvccccccv1oXB!YYYT!Ucr440cP!TYYY!NXo<vccccccvk$$@~~~~~~",
"~$#$$$$O,vccccccnaOXqQTYYTQb*      *bQTYYTQw.+pnccccccv,O$$$$$#~",
"$$@ooooXrmccccccm4oODQYYTQd Xo&1<*oo sQTYYWH+o2nccccccmeXoooo@$#",
"$+>treeuzcccccccl&X8QYYY!b o#iCSACi#o b!YYTQ8X%lvcccccczuerrt>+$",
"@o8VmmmmcccccccnaO.z!YYEI*o#xHSAZSJc#X=PETTQc.+imzccccccnmmmV8o#",
"#o5mccccccccccxmqoODWYY!c oiFZZZZZZJio cQYYWD+Xqmzccczccccccm6o#",
"#o5mcccccccccccm6X&LEYYQr &CSZZZZZAAC& 0QYTEL*X6mcczccccccccn6o$",
"#o5mcccccccccccn4X;UEYTE4 <AZZZZZZAAA< 4ETTEU:X4ncccccccccccm6o@",
"$o5mcccccccccccn4X;UEYTE4 2AAAAAZZZSS1.3RYYEU:.4ncccccccccccm6O#",
"@o6vcccccccccccn8X%LEYYQr $CAAAAZZZSC& qQYYEL*X6ncccccccccccm5o#",
"$o5mcccccccccccmqo+GWYYQc XiJAAAZZZFio x!YYWG@X9mcccccccccccm5O#",
"@o8Vmmmmcccccccnio x!YYEU*o$xFAAASFc#o&PEYY!c OincccccccmmmmM8o$",
"$+,trrruxccccccvl%X8QYYY!b o#iCASCi#o bQYYTQ8X%lvxccccccurrrt,+$",
"@$+ooooXemccccccm4X@GQYYYQs oo&<1&oo sQYYYWH@X3nccccccmrXoOoO+$#",
"~$$$$$$O,vccccccna+ 0!TYYTQb*      &bQRYYT!w.Oinxcccczv,O$$#$$$~",
"~~~~~~@#$jvccccccb<oXN!YYYY!Ix0240xP!YYYY!NoO,vccccccvj$#@~~~~~~",
"~~~~~~~$ormccccccnf@o$K!YYYYEQWERQ!RYYYY!K%o#fncccccxnto$~~~~~~~",
"~~~~~~~$+:vcccccccmeoX*K!TYYYYYERYYYYYT!K=Xoencccccccv:+@~~~~~~~",
"~~~~~~~@$+imcccccccn8oo$NQWTYYYYYYYYTW!N%Xo5ncccccccmio$@~~~~~~~",
"~~~~~~~~@+>vcccccccvv8ooowHQ!WEERRQ!QHwXOo6bvcccccccv,+$~~~~~~~~",
"~~~~~~~~@$otnccccccccme+o.+8cGLUYLGx8@.o+rnccccccccnyO$@~~~~~~~~",
"~~~~~~~~$$X5mcccccccccmf<Oo..+*:;&@ .XO1fmcccccccccm4X$@~~~~~~~~",
"~~~~~~~#$o&gvzcccccccccmnp2%OoXX XoO&4pbnccccccccccvh*o$$~~~~~~~",
"~~~~~~#$+%hmzccccccccccccnnliq62479iknncccccccccccxxnh*+$#~~~~~~",
"~~~~~~$@*hnzccccccccccccccccnmnnnnmncccccccccccccccczmh*+%~~~~~~",
"~~~~~@$+aNccccccccccccccccccccccccccccccccccccccccccczMs+$$~~~~~",
"~~~~~~%+:kncccccccczccccccccccccccccccccxcccccxccccccnl:+$~~~~~~",
"~~~~~~@%O-knzccczvmmccccccccccccccccccccccccnmvzcccxvl;o$$~~~~~~",
"~~~~~~~#$O-lmcccbh5tvncxccccccccccccccccccmvy5hnzczvz-O$$~~~~~~~",
"~~~~~~~~#$o-kvzmj*XO,ivnvccccccccccccccvmvi>OX*hmxnk;o$#~~~~~~~~",
"~~~~~~~~~$$O-lMf*o$$+o:tkvmcccccccccvmbjr:++$$O*hMl;o$$~~~~~~~~~",
"~~~~~~~~~~$$o;s-+$@@$$+o$,rccccccccccr,$o+$$@@$o*s:o$@~~~~~~~~~~",
"~~~~~~~~~~~$$++@%#~~~@$$#OXunccccccmu.O#$#$~~~@%@+@$#~~~~~~~~~~~",
"~~~~~~~~~~~~$$$$@~~~~~~~@$oemccccccnro#$~~~~~~~#$$$#~~~~~~~~~~~~",
"~~~~~~~~~~~~~~$~~~~~~~~~~$Oemccccccnro$~~~~~~~~~~$~~~~~~~~~~~~~~",
"~~~~~~~~~~~~~~~~~~~~~~~~~$oemccccccnro$~~~~~~~~~~~~~~~~~~~~~~~~~",
"~~~~~~~~~~~~~~~~~~~~~~~~~#otMmmnnnnVyo$~~~~~~~~~~~~~~~~~~~~~~~~~",
"~~~~~~~~~~~~~~~~~~~~~~~~~$@>86666668,@$~~~~~~~~~~~~~~~~~~~~~~~~~",
"~~~~~~~~~~~~~~~~~~~~~~~~~@$+ooOooOoo+$@~~~~~~~~~~~~~~~~~~~~~~~~~",
"~~~~~~~~~~~~~~~~~~~~~~~~~~$$########$#~~~~~~~~~~~~~~~~~~~~~~~~~~"
};
